<svg width="401" height="56" viewBox="0 0 401 56" fill="none" xmlns="http://www.w3.org/2000/svg">
<rect width="56" height="56" rx="28" fill="#69B99D" fill-opacity="0.1"/>
<path d="M19.62 24.49C21.59 15.83 34.42 15.84 36.38 24.5C37.53 29.58 34.37 33.88 31.6 36.54C29.59 38.48 26.41 38.48 24.39 36.54C21.63 33.88 18.47 29.57 19.62 24.49Z" stroke="#69B99D" stroke-width="1.5"/>
<path d="M25.25 27.5L26.75 29L30.75 25" stroke="#69B99D" stroke-width="1.5" stroke-linecap="round" stroke-linejoin="round"/>
<path d="M87.248 19.32C89.024 19.32 90.576 19.664 91.904 20.352C93.248 21.024 94.28 22 95 23.28C95.736 24.544 96.104 26.024 96.104 27.72C96.104 29.416 95.736 30.888 95 32.136C94.28 33.384 93.248 34.344 91.904 35.016C90.576 35.672 89.024 36 87.248 36H81.8V19.32H87.248ZM87.248 33.768C89.2 33.768 90.696 33.24 91.736 32.184C92.776 31.128 93.296 29.64 93.296 27.72C93.296 25.784 92.776 24.272 91.736 23.184C90.696 22.096 89.2 21.552 87.248 21.552H84.536V33.768H87.248ZM110.792 22.776V36H108.056V34.44C107.624 34.984 107.056 35.416 106.352 35.736C105.664 36.04 104.928 36.192 104.144 36.192C103.104 36.192 102.168 35.976 101.336 35.544C100.52 35.112 99.8716 34.472 99.3916 33.624C98.9276 32.776 98.6956 31.752 98.6956 30.552V22.776H101.408V30.144C101.408 31.328 101.704 32.24 102.296 32.88C102.888 33.504 103.696 33.816 104.72 33.816C105.744 33.816 106.552 33.504 107.144 32.88C107.752 32.24 108.056 31.328 108.056 30.144V22.776H110.792ZM117.138 24.744C117.602 24.104 118.234 23.584 119.034 23.184C119.85 22.768 120.754 22.56 121.746 22.56C122.914 22.56 123.97 22.84 124.914 23.4C125.858 23.96 126.602 24.76 127.146 25.8C127.69 26.824 127.962 28 127.962 29.328C127.962 30.656 127.69 31.848 127.146 32.904C126.602 33.944 125.85 34.76 124.89 35.352C123.946 35.928 122.898 36.216 121.746 36.216C120.722 36.216 119.81 36.016 119.01 35.616C118.226 35.216 117.602 34.704 117.138 34.08V36H114.402V18.24H117.138V24.744ZM125.178 29.328C125.178 28.416 124.986 27.632 124.602 26.976C124.234 26.304 123.738 25.8 123.114 25.464C122.506 25.112 121.85 24.936 121.146 24.936C120.458 24.936 119.802 25.112 119.178 25.464C118.57 25.816 118.074 26.328 117.69 27C117.322 27.672 117.138 28.464 117.138 29.376C117.138 30.288 117.322 31.088 117.69 31.776C118.074 32.448 118.57 32.96 119.178 33.312C119.802 33.664 120.458 33.84 121.146 33.84C121.85 33.84 122.506 33.664 123.114 33.312C123.738 32.944 124.234 32.416 124.602 31.728C124.986 31.04 125.178 30.24 125.178 29.328ZM129.755 29.328C129.755 28 130.027 26.824 130.571 25.8C131.131 24.776 131.883 23.984 132.827 23.424C133.787 22.848 134.843 22.56 135.995 22.56C137.035 22.56 137.939 22.768 138.707 23.184C139.491 23.584 140.115 24.088 140.579 24.696V22.776H143.339V36H140.579V34.032C140.115 34.656 139.483 35.176 138.683 35.592C137.883 36.008 136.971 36.216 135.947 36.216C134.811 36.216 133.771 35.928 132.827 35.352C131.883 34.76 131.131 33.944 130.571 32.904C130.027 31.848 129.755 30.656 129.755 29.328ZM140.579 29.376C140.579 28.464 140.387 27.672 140.003 27C139.635 26.328 139.147 25.816 138.539 25.464C137.931 25.112 137.275 24.936 136.571 24.936C135.867 24.936 135.211 25.112 134.603 25.464C133.995 25.8 133.499 26.304 133.115 26.976C132.747 27.632 132.563 28.416 132.563 29.328C132.563 30.24 132.747 31.04 133.115 31.728C133.499 32.416 133.995 32.944 134.603 33.312C135.227 33.664 135.883 33.84 136.571 33.84C137.275 33.84 137.931 33.664 138.539 33.312C139.147 32.96 139.635 32.448 140.003 31.776C140.387 31.088 140.579 30.288 140.579 29.376ZM148.325 21.024C147.829 21.024 147.413 20.856 147.077 20.52C146.741 20.184 146.573 19.768 146.573 19.272C146.573 18.776 146.741 18.36 147.077 18.024C147.413 17.688 147.829 17.52 148.325 17.52C148.805 17.52 149.213 17.688 149.549 18.024C149.885 18.36 150.053 18.776 150.053 19.272C150.053 19.768 149.885 20.184 149.549 20.52C149.213 20.856 148.805 21.024 148.325 21.024ZM149.669 22.776V36H146.933V22.776H149.669ZM156.261 32.712L153.357 39.336H151.581L153.285 32.712H156.261ZM178.59 36H175.854L167.622 23.544V36H164.886V19.296H167.622L175.854 31.728V19.296H178.59V36ZM194.303 29.064C194.303 29.56 194.271 30.008 194.207 30.408H184.103C184.183 31.464 184.575 32.312 185.279 32.952C185.983 33.592 186.847 33.912 187.871 33.912C189.343 33.912 190.383 33.296 190.991 32.064H193.943C193.543 33.28 192.815 34.28 191.759 35.064C190.719 35.832 189.423 36.216 187.871 36.216C186.607 36.216 185.471 35.936 184.463 35.376C183.471 34.8 182.687 34 182.111 32.976C181.551 31.936 181.271 30.736 181.271 29.376C181.271 28.016 181.543 26.824 182.087 25.8C182.647 24.76 183.423 23.96 184.415 23.4C185.423 22.84 186.575 22.56 187.871 22.56C189.119 22.56 190.231 22.832 191.207 23.376C192.183 23.92 192.943 24.688 193.487 25.68C194.031 26.656 194.303 27.784 194.303 29.064ZM191.447 28.2C191.431 27.192 191.071 26.384 190.367 25.776C189.663 25.168 188.791 24.864 187.751 24.864C186.807 24.864 185.999 25.168 185.327 25.776C184.655 26.368 184.255 27.176 184.127 28.2H191.447ZM201.795 36.216C200.755 36.216 199.819 36.032 198.987 35.664C198.171 35.28 197.523 34.768 197.043 34.128C196.563 33.472 196.307 32.744 196.275 31.944H199.107C199.155 32.504 199.419 32.976 199.899 33.36C200.395 33.728 201.011 33.912 201.747 33.912C202.515 33.912 203.107 33.768 203.523 33.48C203.955 33.176 204.171 32.792 204.171 32.328C204.171 31.832 203.931 31.464 203.451 31.224C202.987 30.984 202.243 30.72 201.219 30.432C200.227 30.16 199.419 29.896 198.795 29.64C198.171 29.384 197.627 28.992 197.163 28.464C196.715 27.936 196.491 27.24 196.491 26.376C196.491 25.672 196.699 25.032 197.115 24.456C197.531 23.864 198.123 23.4 198.891 23.064C199.675 22.728 200.571 22.56 201.579 22.56C203.083 22.56 204.291 22.944 205.203 23.712C206.131 24.464 206.627 25.496 206.691 26.808H203.955C203.907 26.216 203.667 25.744 203.235 25.392C202.803 25.04 202.219 24.864 201.483 24.864C200.763 24.864 200.211 25 199.827 25.272C199.443 25.544 199.251 25.904 199.251 26.352C199.251 26.704 199.379 27 199.635 27.24C199.891 27.48 200.203 27.672 200.571 27.816C200.939 27.944 201.483 28.112 202.203 28.32C203.163 28.576 203.947 28.84 204.555 29.112C205.179 29.368 205.715 29.752 206.163 30.264C206.611 30.776 206.843 31.456 206.859 32.304C206.859 33.056 206.651 33.728 206.235 34.32C205.819 34.912 205.227 35.376 204.459 35.712C203.707 36.048 202.819 36.216 201.795 36.216ZM213.008 25.008V32.328C213.008 32.824 213.12 33.184 213.344 33.408C213.584 33.616 213.984 33.72 214.544 33.72H216.224V36H214.064C212.832 36 211.888 35.712 211.232 35.136C210.576 34.56 210.248 33.624 210.248 32.328V25.008H208.688V22.776H210.248V19.488H213.008V22.776H216.224V25.008H213.008ZM230.865 29.064C230.865 29.56 230.833 30.008 230.769 30.408H220.665C220.745 31.464 221.137 32.312 221.841 32.952C222.545 33.592 223.409 33.912 224.433 33.912C225.905 33.912 226.945 33.296 227.553 32.064H230.505C230.105 33.28 229.377 34.28 228.321 35.064C227.281 35.832 225.985 36.216 224.433 36.216C223.169 36.216 222.033 35.936 221.025 35.376C220.033 34.8 219.249 34 218.673 32.976C218.113 31.936 217.833 30.736 217.833 29.376C217.833 28.016 218.105 26.824 218.649 25.8C219.209 24.76 219.985 23.96 220.977 23.4C221.985 22.84 223.137 22.56 224.433 22.56C225.681 22.56 226.793 22.832 227.769 23.376C228.745 23.92 229.505 24.688 230.049 25.68C230.593 26.656 230.865 27.784 230.865 29.064ZM228.009 28.2C227.993 27.192 227.633 26.384 226.929 25.776C226.225 25.168 225.353 24.864 224.313 24.864C223.369 24.864 222.561 25.168 221.889 25.776C221.217 26.368 220.817 27.176 220.689 28.2H228.009ZM236.294 24.696C236.694 24.024 237.222 23.504 237.878 23.136C238.55 22.752 239.342 22.56 240.254 22.56V25.392H239.558C238.486 25.392 237.67 25.664 237.11 26.208C236.566 26.752 236.294 27.696 236.294 29.04V36H233.558V22.776H236.294V24.696ZM260.667 24.288C260.667 25.136 260.467 25.936 260.067 26.688C259.667 27.44 259.027 28.056 258.147 28.536C257.267 29 256.139 29.232 254.763 29.232H251.739V36H249.003V19.32H254.763C256.043 19.32 257.123 19.544 258.003 19.992C258.899 20.424 259.563 21.016 259.995 21.768C260.443 22.52 260.667 23.36 260.667 24.288ZM254.763 27C255.803 27 256.579 26.768 257.091 26.304C257.603 25.824 257.859 25.152 257.859 24.288C257.859 22.464 256.827 21.552 254.763 21.552H251.739V27H254.763ZM266.013 19.32V36H263.277V19.32H266.013ZM272.605 32.712L269.701 39.336H267.925L269.629 32.712H272.605ZM291.286 32.592H284.302L283.102 36H280.246L286.222 19.296H289.39L295.366 36H292.486L291.286 32.592ZM290.518 30.36L287.806 22.608L285.07 30.36H290.518ZM300.7 24.72C301.164 24.112 301.796 23.6 302.596 23.184C303.396 22.768 304.3 22.56 305.308 22.56C306.46 22.56 307.508 22.848 308.452 23.424C309.412 23.984 310.164 24.776 310.708 25.8C311.252 26.824 311.524 28 311.524 29.328C311.524 30.656 311.252 31.848 310.708 32.904C310.164 33.944 309.412 34.76 308.452 35.352C307.508 35.928 306.46 36.216 305.308 36.216C304.3 36.216 303.404 36.016 302.62 35.616C301.836 35.2 301.196 34.688 300.7 34.08V42.288H297.964V22.776H300.7V24.72ZM308.74 29.328C308.74 28.416 308.548 27.632 308.164 26.976C307.796 26.304 307.3 25.8 306.676 25.464C306.068 25.112 305.412 24.936 304.708 24.936C304.02 24.936 303.364 25.112 302.74 25.464C302.132 25.816 301.636 26.328 301.252 27C300.884 27.672 300.7 28.464 300.7 29.376C300.7 30.288 300.884 31.088 301.252 31.776C301.636 32.448 302.132 32.96 302.74 33.312C303.364 33.664 304.02 33.84 304.708 33.84C305.412 33.84 306.068 33.664 306.676 33.312C307.3 32.944 307.796 32.416 308.164 31.728C308.548 31.04 308.74 30.24 308.74 29.328ZM319.744 21V18.504H324.736V36H321.976V21H319.744ZM328.159 32.352V30.288L336.223 18.72H339.535V29.976H341.767V32.352H339.535V36H336.847V32.352H328.159ZM336.967 21.504L331.303 29.976H336.967V21.504ZM347.394 32.712L344.49 39.336H342.714L344.418 32.712H347.394ZM366.939 20.856H358.899V25.632C359.235 25.184 359.731 24.808 360.387 24.504C361.059 24.2 361.771 24.048 362.523 24.048C363.867 24.048 364.955 24.336 365.787 24.912C366.635 25.488 367.235 26.216 367.587 27.096C367.955 27.976 368.139 28.904 368.139 29.88C368.139 31.064 367.907 32.12 367.443 33.048C366.995 33.96 366.315 34.68 365.403 35.208C364.507 35.736 363.403 36 362.091 36C360.347 36 358.947 35.568 357.891 34.704C356.835 33.84 356.203 32.696 355.995 31.272H358.659C358.835 32.024 359.227 32.624 359.835 33.072C360.443 33.504 361.203 33.72 362.115 33.72C363.251 33.72 364.099 33.376 364.659 32.688C365.235 32 365.523 31.088 365.523 29.952C365.523 28.8 365.235 27.92 364.659 27.312C364.083 26.688 363.235 26.376 362.115 26.376C361.331 26.376 360.667 26.576 360.123 26.976C359.595 27.36 359.211 27.888 358.971 28.56H356.379V18.456H366.939V20.856ZM380.395 22.56C380.219 21.824 379.899 21.272 379.435 20.904C378.971 20.536 378.323 20.352 377.491 20.352C376.227 20.352 375.283 20.84 374.659 21.816C374.035 22.776 373.707 24.376 373.675 26.616C374.091 25.912 374.699 25.368 375.499 24.984C376.299 24.6 377.163 24.408 378.091 24.408C379.147 24.408 380.075 24.64 380.875 25.104C381.691 25.552 382.323 26.208 382.771 27.072C383.235 27.936 383.467 28.968 383.467 30.168C383.467 31.288 383.243 32.288 382.795 33.168C382.363 34.048 381.715 34.744 380.851 35.256C379.987 35.752 378.947 36 377.731 36C376.083 36 374.787 35.64 373.843 34.92C372.915 34.184 372.259 33.152 371.875 31.824C371.507 30.496 371.323 28.84 371.323 26.856C371.323 21 373.387 18.072 377.515 18.072C379.115 18.072 380.371 18.504 381.283 19.368C382.211 20.232 382.755 21.296 382.915 22.56H380.395ZM377.491 26.712C376.515 26.712 375.683 27.008 374.995 27.6C374.323 28.176 373.987 29.016 373.987 30.12C373.987 31.224 374.299 32.104 374.923 32.76C375.563 33.4 376.451 33.72 377.587 33.72C378.595 33.72 379.387 33.408 379.963 32.784C380.555 32.16 380.851 31.328 380.851 30.288C380.851 29.2 380.563 28.336 379.987 27.696C379.427 27.04 378.595 26.712 377.491 26.712ZM397.665 20.856H389.625V25.632C389.961 25.184 390.457 24.808 391.113 24.504C391.785 24.2 392.497 24.048 393.249 24.048C394.593 24.048 395.681 24.336 396.513 24.912C397.361 25.488 397.961 26.216 398.313 27.096C398.681 27.976 398.865 28.904 398.865 29.88C398.865 31.064 398.633 32.12 398.169 33.048C397.721 33.96 397.041 34.68 396.129 35.208C395.233 35.736 394.129 36 392.817 36C391.073 36 389.673 35.568 388.617 34.704C387.561 33.84 386.929 32.696 386.721 31.272H389.385C389.561 32.024 389.953 32.624 390.561 33.072C391.169 33.504 391.929 33.72 392.841 33.72C393.977 33.72 394.825 33.376 395.385 32.688C395.961 32 396.249 31.088 396.249 29.952C396.249 28.8 395.961 27.92 395.385 27.312C394.809 26.688 393.961 26.376 392.841 26.376C392.057 26.376 391.393 26.576 390.849 26.976C390.321 27.36 389.937 27.888 389.697 28.56H387.105V18.456H397.665V20.856Z" fill="#1F2744"/>
</svg>
