<svg width="370" height="56" viewBox="0 0 370 56" fill="none" xmlns="http://www.w3.org/2000/svg">
<rect width="56" height="56" rx="28" fill="#69B99D" fill-opacity="0.1"/>
<path d="M33 36.5H23C20 36.5 18 35 18 31.5V24.5C18 21 20 19.5 23 19.5H33C36 19.5 38 21 38 24.5V31.5C38 35 36 36.5 33 36.5Z" stroke="#69B99D" stroke-width="1.5" stroke-miterlimit="10" stroke-linecap="round" stroke-linejoin="round"/>
<path d="M33 25L29.87 27.5C28.84 28.32 27.15 28.32 26.12 27.5L23 25" stroke="#69B99D" stroke-width="1.5" stroke-miterlimit="10" stroke-linecap="round" stroke-linejoin="round"/>
<path d="M83.192 21.024C82.696 21.024 82.28 20.856 81.944 20.52C81.608 20.184 81.44 19.768 81.44 19.272C81.44 18.776 81.608 18.36 81.944 18.024C82.28 17.688 82.696 17.52 83.192 17.52C83.672 17.52 84.08 17.688 84.416 18.024C84.752 18.36 84.92 18.776 84.92 19.272C84.92 19.768 84.752 20.184 84.416 20.52C84.08 20.856 83.672 21.024 83.192 21.024ZM84.536 22.776V36H81.8V22.776H84.536ZM94.8001 22.56C95.8401 22.56 96.7681 22.776 97.5841 23.208C98.4161 23.64 99.0641 24.28 99.5281 25.128C99.9921 25.976 100.224 27 100.224 28.2V36H97.5121V28.608C97.5121 27.424 97.2161 26.52 96.6241 25.896C96.0321 25.256 95.2241 24.936 94.2001 24.936C93.1761 24.936 92.3601 25.256 91.7521 25.896C91.1601 26.52 90.8641 27.424 90.8641 28.608V36H88.1281V22.776H90.8641V24.288C91.3121 23.744 91.8801 23.32 92.5681 23.016C93.2721 22.712 94.0161 22.56 94.8001 22.56ZM109.258 25.008H106.81V36H104.05V25.008H102.49V22.776H104.05V21.84C104.05 20.32 104.45 19.216 105.25 18.528C106.066 17.824 107.338 17.472 109.066 17.472V19.752C108.234 19.752 107.65 19.912 107.314 20.232C106.978 20.536 106.81 21.072 106.81 21.84V22.776H109.258V25.008ZM117.419 36.216C116.171 36.216 115.043 35.936 114.035 35.376C113.027 34.8 112.235 34 111.659 32.976C111.083 31.936 110.795 30.736 110.795 29.376C110.795 28.032 111.091 26.84 111.683 25.8C112.275 24.76 113.083 23.96 114.107 23.4C115.131 22.84 116.275 22.56 117.539 22.56C118.803 22.56 119.947 22.84 120.971 23.4C121.995 23.96 122.803 24.76 123.395 25.8C123.987 26.84 124.283 28.032 124.283 29.376C124.283 30.72 123.979 31.912 123.371 32.952C122.763 33.992 121.931 34.8 120.875 35.376C119.835 35.936 118.683 36.216 117.419 36.216ZM117.419 33.84C118.123 33.84 118.779 33.672 119.387 33.336C120.011 33 120.515 32.496 120.899 31.824C121.283 31.152 121.475 30.336 121.475 29.376C121.475 28.416 121.291 27.608 120.923 26.952C120.555 26.28 120.067 25.776 119.459 25.44C118.851 25.104 118.195 24.936 117.491 24.936C116.787 24.936 116.131 25.104 115.523 25.44C114.931 25.776 114.459 26.28 114.107 26.952C113.755 27.608 113.579 28.416 113.579 29.376C113.579 30.8 113.939 31.904 114.659 32.688C115.395 33.456 116.315 33.84 117.419 33.84ZM139.299 20.496C141.124 20.496 142.7 20.832 144.028 21.504C145.356 22.176 146.364 23.12 147.052 24.336C147.756 25.536 148.108 26.936 148.108 28.536C148.108 29.816 147.884 31.04 147.436 32.208C147.004 33.376 146.372 34.328 145.54 35.064C144.724 35.8 143.756 36.168 142.636 36.168C141.82 36.168 141.18 35.992 140.716 35.64C140.252 35.272 139.964 34.76 139.852 34.104C139.356 34.744 138.732 35.248 137.98 35.616C137.228 35.984 136.444 36.168 135.628 36.168C134.396 36.168 133.428 35.8 132.724 35.064C132.036 34.312 131.692 33.296 131.692 32.016C131.692 30.8 131.94 29.664 132.436 28.608C132.948 27.552 133.66 26.712 134.572 26.088C135.484 25.448 136.508 25.128 137.644 25.128C139.036 25.128 140.012 25.6 140.572 26.544L140.788 25.344H143.164L141.964 32.208C141.916 32.544 141.892 32.84 141.892 33.096C141.892 33.512 141.972 33.824 142.132 34.032C142.308 34.24 142.612 34.344 143.044 34.344C143.652 34.344 144.172 34.048 144.604 33.456C145.036 32.848 145.356 32.104 145.564 31.224C145.788 30.344 145.9 29.488 145.9 28.656C145.9 26.624 145.308 25.072 144.124 24C142.94 22.928 141.22 22.392 138.964 22.392C137.076 22.392 135.38 22.84 133.876 23.736C132.388 24.632 131.22 25.864 130.372 27.432C129.524 29 129.1 30.744 129.1 32.664C129.1 34.712 129.708 36.272 130.924 37.344C132.14 38.416 133.876 38.952 136.132 38.952C137.652 38.952 138.98 38.672 140.116 38.112L140.476 39.936C139.02 40.56 137.388 40.872 135.58 40.872C133.836 40.872 132.308 40.544 130.996 39.888C129.684 39.232 128.668 38.296 127.948 37.08C127.228 35.88 126.868 34.48 126.868 32.88C126.868 30.592 127.396 28.504 128.452 26.616C129.524 24.728 131.004 23.24 132.892 22.152C134.78 21.048 136.916 20.496 139.299 20.496ZM136.468 34.056C137.14 34.056 137.748 33.864 138.292 33.48C138.852 33.08 139.292 32.56 139.612 31.92C139.932 31.264 140.092 30.568 140.092 29.832C140.092 29.064 139.876 28.44 139.444 27.96C139.028 27.464 138.436 27.216 137.668 27.216C136.98 27.216 136.372 27.432 135.844 27.864C135.332 28.28 134.932 28.824 134.644 29.496C134.372 30.168 134.236 30.872 134.236 31.608C134.236 32.36 134.42 32.96 134.788 33.408C135.156 33.84 135.716 34.056 136.468 34.056ZM169.165 19.32V36H166.429V24.576L161.341 36H159.445L154.333 24.576V36H151.597V19.32H154.549L160.405 32.4L166.237 19.32H169.165ZM184.737 22.776V36H182.001V34.44C181.569 34.984 181.001 35.416 180.297 35.736C179.609 36.04 178.873 36.192 178.089 36.192C177.049 36.192 176.113 35.976 175.281 35.544C174.465 35.112 173.817 34.472 173.337 33.624C172.873 32.776 172.641 31.752 172.641 30.552V22.776H175.353V30.144C175.353 31.328 175.649 32.24 176.241 32.88C176.833 33.504 177.641 33.816 178.665 33.816C179.689 33.816 180.497 33.504 181.089 32.88C181.697 32.24 182.001 31.328 182.001 30.144V22.776H184.737ZM191.083 18.24V36H188.347V18.24H191.083ZM196.067 21.024C195.571 21.024 195.155 20.856 194.819 20.52C194.483 20.184 194.315 19.768 194.315 19.272C194.315 18.776 194.483 18.36 194.819 18.024C195.155 17.688 195.571 17.52 196.067 17.52C196.547 17.52 196.955 17.688 197.291 18.024C197.627 18.36 197.795 18.776 197.795 19.272C197.795 19.768 197.627 20.184 197.291 20.52C196.955 20.856 196.547 21.024 196.067 21.024ZM197.411 22.776V36H194.675V22.776H197.411ZM207.843 22.56C208.851 22.56 209.747 22.776 210.531 23.208C211.331 23.64 211.955 24.28 212.403 25.128C212.867 25.976 213.099 27 213.099 28.2V36H210.387V28.608C210.387 27.424 210.091 26.52 209.499 25.896C208.907 25.256 208.099 24.936 207.075 24.936C206.051 24.936 205.235 25.256 204.627 25.896C204.035 26.52 203.739 27.424 203.739 28.608V36H201.003V18.24H203.739V24.312C204.203 23.752 204.787 23.32 205.491 23.016C206.211 22.712 206.995 22.56 207.843 22.56ZM228.901 20.496C230.725 20.496 232.301 20.832 233.629 21.504C234.957 22.176 235.965 23.12 236.653 24.336C237.357 25.536 237.709 26.936 237.709 28.536C237.709 29.816 237.485 31.04 237.037 32.208C236.605 33.376 235.973 34.328 235.141 35.064C234.325 35.8 233.357 36.168 232.237 36.168C231.421 36.168 230.781 35.992 230.317 35.64C229.853 35.272 229.565 34.76 229.453 34.104C228.957 34.744 228.333 35.248 227.581 35.616C226.829 35.984 226.045 36.168 225.229 36.168C223.997 36.168 223.029 35.8 222.325 35.064C221.637 34.312 221.293 33.296 221.293 32.016C221.293 30.8 221.541 29.664 222.037 28.608C222.549 27.552 223.261 26.712 224.173 26.088C225.085 25.448 226.109 25.128 227.245 25.128C228.637 25.128 229.613 25.6 230.173 26.544L230.389 25.344H232.765L231.565 32.208C231.517 32.544 231.493 32.84 231.493 33.096C231.493 33.512 231.573 33.824 231.733 34.032C231.909 34.24 232.213 34.344 232.645 34.344C233.253 34.344 233.773 34.048 234.205 33.456C234.637 32.848 234.957 32.104 235.165 31.224C235.389 30.344 235.501 29.488 235.501 28.656C235.501 26.624 234.909 25.072 233.725 24C232.541 22.928 230.821 22.392 228.565 22.392C226.677 22.392 224.981 22.84 223.477 23.736C221.989 24.632 220.821 25.864 219.973 27.432C219.125 29 218.701 30.744 218.701 32.664C218.701 34.712 219.309 36.272 220.525 37.344C221.741 38.416 223.477 38.952 225.733 38.952C227.253 38.952 228.581 38.672 229.717 38.112L230.077 39.936C228.621 40.56 226.989 40.872 225.181 40.872C223.437 40.872 221.909 40.544 220.597 39.888C219.285 39.232 218.269 38.296 217.549 37.08C216.829 35.88 216.469 34.48 216.469 32.88C216.469 30.592 216.997 28.504 218.053 26.616C219.125 24.728 220.605 23.24 222.493 22.152C224.381 21.048 226.517 20.496 228.901 20.496ZM226.069 34.056C226.741 34.056 227.349 33.864 227.893 33.48C228.453 33.08 228.893 32.56 229.213 31.92C229.533 31.264 229.693 30.568 229.693 29.832C229.693 29.064 229.477 28.44 229.045 27.96C228.629 27.464 228.037 27.216 227.269 27.216C226.581 27.216 225.973 27.432 225.445 27.864C224.933 28.28 224.533 28.824 224.245 29.496C223.973 30.168 223.837 30.872 223.837 31.608C223.837 32.36 224.021 32.96 224.389 33.408C224.757 33.84 225.317 34.056 226.069 34.056ZM246.526 22.56C247.55 22.56 248.454 22.768 249.238 23.184C250.038 23.584 250.662 24.088 251.11 24.696V22.776H253.87V36.216C253.87 37.432 253.614 38.512 253.102 39.456C252.59 40.416 251.846 41.168 250.87 41.712C249.91 42.256 248.758 42.528 247.414 42.528C245.622 42.528 244.134 42.104 242.95 41.256C241.766 40.424 241.094 39.288 240.934 37.848H243.646C243.854 38.536 244.294 39.088 244.966 39.504C245.654 39.936 246.47 40.152 247.414 40.152C248.518 40.152 249.406 39.816 250.078 39.144C250.766 38.472 251.11 37.496 251.11 36.216V34.008C250.646 34.632 250.014 35.16 249.214 35.592C248.43 36.008 247.534 36.216 246.526 36.216C245.374 36.216 244.318 35.928 243.358 35.352C242.414 34.76 241.662 33.944 241.102 32.904C240.558 31.848 240.286 30.656 240.286 29.328C240.286 28 240.558 26.824 241.102 25.8C241.662 24.776 242.414 23.984 243.358 23.424C244.318 22.848 245.374 22.56 246.526 22.56ZM251.11 29.376C251.11 28.464 250.918 27.672 250.534 27C250.166 26.328 249.678 25.816 249.07 25.464C248.462 25.112 247.806 24.936 247.102 24.936C246.398 24.936 245.742 25.112 245.134 25.464C244.526 25.8 244.03 26.304 243.646 26.976C243.278 27.632 243.094 28.416 243.094 29.328C243.094 30.24 243.278 31.04 243.646 31.728C244.03 32.416 244.526 32.944 245.134 33.312C245.758 33.664 246.414 33.84 247.102 33.84C247.806 33.84 248.462 33.664 249.07 33.312C249.678 32.96 250.166 32.448 250.534 31.776C250.918 31.088 251.11 30.288 251.11 29.376ZM273.472 22.56C274.512 22.56 275.44 22.776 276.256 23.208C277.088 23.64 277.736 24.28 278.2 25.128C278.68 25.976 278.92 27 278.92 28.2V36H276.208V28.608C276.208 27.424 275.912 26.52 275.32 25.896C274.728 25.256 273.92 24.936 272.896 24.936C271.872 24.936 271.056 25.256 270.448 25.896C269.856 26.52 269.56 27.424 269.56 28.608V36H266.848V28.608C266.848 27.424 266.552 26.52 265.96 25.896C265.368 25.256 264.56 24.936 263.536 24.936C262.512 24.936 261.696 25.256 261.088 25.896C260.496 26.52 260.2 27.424 260.2 28.608V36H257.464V22.776H260.2V24.288C260.648 23.744 261.216 23.32 261.904 23.016C262.592 22.712 263.328 22.56 264.112 22.56C265.168 22.56 266.112 22.784 266.944 23.232C267.776 23.68 268.416 24.328 268.864 25.176C269.264 24.376 269.888 23.744 270.736 23.28C271.584 22.8 272.496 22.56 273.472 22.56ZM281.49 29.328C281.49 28 281.762 26.824 282.306 25.8C282.866 24.776 283.618 23.984 284.562 23.424C285.522 22.848 286.578 22.56 287.73 22.56C288.77 22.56 289.674 22.768 290.442 23.184C291.226 23.584 291.85 24.088 292.314 24.696V22.776H295.074V36H292.314V34.032C291.85 34.656 291.218 35.176 290.418 35.592C289.618 36.008 288.706 36.216 287.682 36.216C286.546 36.216 285.506 35.928 284.562 35.352C283.618 34.76 282.866 33.944 282.306 32.904C281.762 31.848 281.49 30.656 281.49 29.328ZM292.314 29.376C292.314 28.464 292.122 27.672 291.738 27C291.37 26.328 290.882 25.816 290.274 25.464C289.666 25.112 289.01 24.936 288.306 24.936C287.602 24.936 286.946 25.112 286.338 25.464C285.73 25.8 285.234 26.304 284.85 26.976C284.482 27.632 284.298 28.416 284.298 29.328C284.298 30.24 284.482 31.04 284.85 31.728C285.234 32.416 285.73 32.944 286.338 33.312C286.962 33.664 287.618 33.84 288.306 33.84C289.01 33.84 289.666 33.664 290.274 33.312C290.882 32.96 291.37 32.448 291.738 31.776C292.122 31.088 292.314 30.288 292.314 29.376ZM300.059 21.024C299.563 21.024 299.147 20.856 298.811 20.52C298.475 20.184 298.307 19.768 298.307 19.272C298.307 18.776 298.475 18.36 298.811 18.024C299.147 17.688 299.563 17.52 300.059 17.52C300.539 17.52 300.947 17.688 301.283 18.024C301.619 18.36 301.787 18.776 301.787 19.272C301.787 19.768 301.619 20.184 301.283 20.52C300.947 20.856 300.539 21.024 300.059 21.024ZM301.403 22.776V36H298.667V22.776H301.403ZM307.731 18.24V36H304.995V18.24H307.731ZM312.427 36.168C311.931 36.168 311.515 36 311.179 35.664C310.843 35.328 310.675 34.912 310.675 34.416C310.675 33.92 310.843 33.504 311.179 33.168C311.515 32.832 311.931 32.664 312.427 32.664C312.907 32.664 313.315 32.832 313.651 33.168C313.987 33.504 314.155 33.92 314.155 34.416C314.155 34.912 313.987 35.328 313.651 35.664C313.315 36 312.907 36.168 312.427 36.168ZM316.201 29.376C316.201 28.016 316.473 26.824 317.017 25.8C317.577 24.76 318.345 23.96 319.321 23.4C320.297 22.84 321.417 22.56 322.681 22.56C324.281 22.56 325.601 22.944 326.641 23.712C327.697 24.464 328.409 25.544 328.777 26.952H325.825C325.585 26.296 325.201 25.784 324.673 25.416C324.145 25.048 323.481 24.864 322.681 24.864C321.561 24.864 320.665 25.264 319.993 26.064C319.337 26.848 319.009 27.952 319.009 29.376C319.009 30.8 319.337 31.912 319.993 32.712C320.665 33.512 321.561 33.912 322.681 33.912C324.265 33.912 325.313 33.216 325.825 31.824H328.777C328.393 33.168 327.673 34.24 326.617 35.04C325.561 35.824 324.249 36.216 322.681 36.216C321.417 36.216 320.297 35.936 319.321 35.376C318.345 34.8 317.577 34 317.017 32.976C316.473 31.936 316.201 30.736 316.201 29.376ZM337.239 36.216C335.991 36.216 334.863 35.936 333.855 35.376C332.847 34.8 332.055 34 331.479 32.976C330.903 31.936 330.615 30.736 330.615 29.376C330.615 28.032 330.911 26.84 331.503 25.8C332.095 24.76 332.903 23.96 333.927 23.4C334.951 22.84 336.095 22.56 337.359 22.56C338.623 22.56 339.767 22.84 340.791 23.4C341.815 23.96 342.623 24.76 343.215 25.8C343.807 26.84 344.103 28.032 344.103 29.376C344.103 30.72 343.799 31.912 343.191 32.952C342.583 33.992 341.751 34.8 340.695 35.376C339.655 35.936 338.503 36.216 337.239 36.216ZM337.239 33.84C337.943 33.84 338.599 33.672 339.207 33.336C339.831 33 340.335 32.496 340.719 31.824C341.103 31.152 341.295 30.336 341.295 29.376C341.295 28.416 341.111 27.608 340.743 26.952C340.375 26.28 339.887 25.776 339.279 25.44C338.671 25.104 338.015 24.936 337.311 24.936C336.607 24.936 335.951 25.104 335.343 25.44C334.751 25.776 334.279 26.28 333.927 26.952C333.575 27.608 333.399 28.416 333.399 29.376C333.399 30.8 333.759 31.904 334.479 32.688C335.215 33.456 336.135 33.84 337.239 33.84ZM362.816 22.56C363.856 22.56 364.784 22.776 365.6 23.208C366.432 23.64 367.08 24.28 367.544 25.128C368.024 25.976 368.264 27 368.264 28.2V36H365.552V28.608C365.552 27.424 365.256 26.52 364.664 25.896C364.072 25.256 363.264 24.936 362.24 24.936C361.216 24.936 360.4 25.256 359.792 25.896C359.2 26.52 358.904 27.424 358.904 28.608V36H356.192V28.608C356.192 27.424 355.896 26.52 355.304 25.896C354.712 25.256 353.904 24.936 352.88 24.936C351.856 24.936 351.04 25.256 350.432 25.896C349.84 26.52 349.544 27.424 349.544 28.608V36H346.808V22.776H349.544V24.288C349.992 23.744 350.56 23.32 351.248 23.016C351.936 22.712 352.672 22.56 353.456 22.56C354.512 22.56 355.456 22.784 356.288 23.232C357.12 23.68 357.76 24.328 358.208 25.176C358.608 24.376 359.232 23.744 360.08 23.28C360.928 22.8 361.84 22.56 362.816 22.56Z" fill="#1F2744"/>
</svg>
