<svg width="515" height="82" viewBox="0 0 515 82" fill="none" xmlns="http://www.w3.org/2000/svg">
<rect width="515" height="82" fill="white"/>
<path d="M171.688 26.112C171.688 27.04 171.368 27.8133 170.728 28.432C170.099 29.04 169.133 29.344 167.832 29.344H165.688V34H164.232V22.848H167.832C169.091 22.848 170.045 23.152 170.696 23.76C171.357 24.368 171.688 25.152 171.688 26.112ZM167.832 28.144C168.643 28.144 169.24 27.968 169.624 27.616C170.008 27.264 170.2 26.7627 170.2 26.112C170.2 24.736 169.411 24.048 167.832 24.048H165.688V28.144H167.832ZM174.994 26.656C175.25 26.1547 175.612 25.7653 176.082 25.488C176.562 25.2107 177.143 25.072 177.826 25.072V26.576H177.442C175.81 26.576 174.994 27.4613 174.994 29.232V34H173.538V25.232H174.994V26.656ZM183.37 34.144C182.549 34.144 181.802 33.9573 181.13 33.584C180.469 33.2107 179.946 32.6827 179.562 32C179.189 31.3067 179.002 30.5067 179.002 29.6C179.002 28.704 179.194 27.9147 179.578 27.232C179.973 26.5387 180.506 26.0107 181.178 25.648C181.85 25.2747 182.602 25.088 183.434 25.088C184.266 25.088 185.018 25.2747 185.69 25.648C186.362 26.0107 186.89 26.5333 187.274 27.216C187.669 27.8987 187.866 28.6933 187.866 29.6C187.866 30.5067 187.664 31.3067 187.258 32C186.864 32.6827 186.325 33.2107 185.642 33.584C184.96 33.9573 184.202 34.144 183.37 34.144ZM183.37 32.864C183.893 32.864 184.384 32.7413 184.842 32.496C185.301 32.2507 185.669 31.8827 185.946 31.392C186.234 30.9013 186.378 30.304 186.378 29.6C186.378 28.896 186.24 28.2987 185.962 27.808C185.685 27.3173 185.322 26.9547 184.874 26.72C184.426 26.4747 183.941 26.352 183.418 26.352C182.885 26.352 182.394 26.4747 181.946 26.72C181.509 26.9547 181.157 27.3173 180.89 27.808C180.624 28.2987 180.49 28.896 180.49 29.6C180.49 30.3147 180.618 30.9173 180.874 31.408C181.141 31.8987 181.493 32.2667 181.93 32.512C182.368 32.7467 182.848 32.864 183.37 32.864ZM191.277 26.848C191.565 26.3467 191.991 25.9307 192.557 25.6C193.133 25.2587 193.799 25.088 194.557 25.088C195.335 25.088 196.039 25.2747 196.669 25.648C197.309 26.0213 197.81 26.5493 198.173 27.232C198.535 27.904 198.717 28.688 198.717 29.584C198.717 30.4693 198.535 31.2587 198.173 31.952C197.81 32.6453 197.309 33.184 196.669 33.568C196.039 33.952 195.335 34.144 194.557 34.144C193.81 34.144 193.149 33.9787 192.573 33.648C192.007 33.3067 191.575 32.8853 191.277 32.384V38.16H189.821V25.232H191.277V26.848ZM197.229 29.584C197.229 28.9227 197.095 28.3467 196.829 27.856C196.562 27.3653 196.199 26.992 195.741 26.736C195.293 26.48 194.797 26.352 194.253 26.352C193.719 26.352 193.223 26.4853 192.765 26.752C192.317 27.008 191.954 27.3867 191.677 27.888C191.41 28.3787 191.277 28.9493 191.277 29.6C191.277 30.2613 191.41 30.8427 191.677 31.344C191.954 31.8347 192.317 32.2133 192.765 32.48C193.223 32.736 193.719 32.864 194.253 32.864C194.797 32.864 195.293 32.736 195.741 32.48C196.199 32.2133 196.562 31.8347 196.829 31.344C197.095 30.8427 197.229 30.256 197.229 29.584ZM208.673 29.28C208.673 29.5573 208.657 29.8507 208.625 30.16H201.617C201.671 31.024 201.964 31.7013 202.497 32.192C203.041 32.672 203.697 32.912 204.465 32.912C205.095 32.912 205.617 32.768 206.033 32.48C206.46 32.1813 206.759 31.7867 206.929 31.296H208.497C208.263 32.1387 207.793 32.8267 207.089 33.36C206.385 33.8827 205.511 34.144 204.465 34.144C203.633 34.144 202.887 33.9573 202.225 33.584C201.575 33.2107 201.063 32.6827 200.689 32C200.316 31.3067 200.129 30.5067 200.129 29.6C200.129 28.6933 200.311 27.8987 200.673 27.216C201.036 26.5333 201.543 26.0107 202.193 25.648C202.855 25.2747 203.612 25.088 204.465 25.088C205.297 25.088 206.033 25.2693 206.673 25.632C207.313 25.9947 207.804 26.496 208.145 27.136C208.497 27.7653 208.673 28.48 208.673 29.28ZM207.169 28.976C207.169 28.4213 207.047 27.9467 206.801 27.552C206.556 27.1467 206.22 26.8427 205.793 26.64C205.377 26.4267 204.913 26.32 204.401 26.32C203.665 26.32 203.036 26.5547 202.513 27.024C202.001 27.4933 201.708 28.144 201.633 28.976H207.169ZM212.091 26.656C212.347 26.1547 212.71 25.7653 213.179 25.488C213.659 25.2107 214.24 25.072 214.923 25.072V26.576H214.539C212.907 26.576 212.091 27.4613 212.091 29.232V34H210.635V25.232H212.091V26.656ZM218.42 26.432V31.6C218.42 32.0267 218.511 32.3307 218.692 32.512C218.873 32.6827 219.188 32.768 219.636 32.768H220.708V34H219.396C218.585 34 217.977 33.8133 217.572 33.44C217.167 33.0667 216.964 32.4533 216.964 31.6V26.432H215.828V25.232H216.964V23.024H218.42V25.232H220.708V26.432H218.42ZM230.064 25.232L224.784 38.128H223.28L225.008 33.904L221.472 25.232H223.088L225.84 32.336L228.56 25.232H230.064ZM167.768 60.112C167.032 60.112 166.371 59.984 165.784 59.728C165.208 59.4613 164.755 59.0987 164.424 58.64C164.093 58.1707 163.923 57.632 163.912 57.024H165.464C165.517 57.5467 165.731 57.9893 166.104 58.352C166.488 58.704 167.043 58.88 167.768 58.88C168.461 58.88 169.005 58.7093 169.4 58.368C169.805 58.016 170.008 57.568 170.008 57.024C170.008 56.5973 169.891 56.2507 169.656 55.984C169.421 55.7173 169.128 55.5147 168.776 55.376C168.424 55.2373 167.949 55.088 167.352 54.928C166.616 54.736 166.024 54.544 165.576 54.352C165.139 54.16 164.76 53.8613 164.44 53.456C164.131 53.04 163.976 52.4853 163.976 51.792C163.976 51.184 164.131 50.6453 164.44 50.176C164.749 49.7067 165.181 49.344 165.736 49.088C166.301 48.832 166.947 48.704 167.672 48.704C168.717 48.704 169.571 48.9653 170.232 49.488C170.904 50.0107 171.283 50.704 171.368 51.568H169.768C169.715 51.1413 169.491 50.768 169.096 50.448C168.701 50.1173 168.179 49.952 167.528 49.952C166.92 49.952 166.424 50.112 166.04 50.432C165.656 50.7413 165.464 51.1787 165.464 51.744C165.464 52.1493 165.576 52.48 165.8 52.736C166.035 52.992 166.317 53.1893 166.648 53.328C166.989 53.456 167.464 53.6053 168.072 53.776C168.808 53.9787 169.4 54.1813 169.848 54.384C170.296 54.576 170.68 54.88 171 55.296C171.32 55.7013 171.48 56.256 171.48 56.96C171.48 57.504 171.336 58.016 171.048 58.496C170.76 58.976 170.333 59.3653 169.768 59.664C169.203 59.9627 168.536 60.112 167.768 60.112ZM173.119 55.584C173.119 54.688 173.3 53.904 173.663 53.232C174.025 52.5493 174.521 52.0213 175.151 51.648C175.791 51.2747 176.5 51.088 177.279 51.088C178.047 51.088 178.713 51.2533 179.279 51.584C179.844 51.9147 180.265 52.3307 180.543 52.832V51.232H182.015V60H180.543V58.368C180.255 58.88 179.823 59.3067 179.247 59.648C178.681 59.9787 178.02 60.144 177.263 60.144C176.484 60.144 175.78 59.952 175.151 59.568C174.521 59.184 174.025 58.6453 173.663 57.952C173.3 57.2587 173.119 56.4693 173.119 55.584ZM180.543 55.6C180.543 54.9387 180.409 54.3627 180.143 53.872C179.876 53.3813 179.513 53.008 179.055 52.752C178.607 52.4853 178.111 52.352 177.567 52.352C177.023 52.352 176.527 52.48 176.079 52.736C175.631 52.992 175.273 53.3653 175.007 53.856C174.74 54.3467 174.607 54.9227 174.607 55.584C174.607 56.256 174.74 56.8427 175.007 57.344C175.273 57.8347 175.631 58.2133 176.079 58.48C176.527 58.736 177.023 58.864 177.567 58.864C178.111 58.864 178.607 58.736 179.055 58.48C179.513 58.2133 179.876 57.8347 180.143 57.344C180.409 56.8427 180.543 56.2613 180.543 55.6ZM185.971 48.16V60H184.515V48.16H185.971ZM196.493 55.28C196.493 55.5573 196.477 55.8507 196.445 56.16H189.437C189.49 57.024 189.783 57.7013 190.317 58.192C190.861 58.672 191.517 58.912 192.285 58.912C192.914 58.912 193.437 58.768 193.853 58.48C194.279 58.1813 194.578 57.7867 194.749 57.296H196.317C196.082 58.1387 195.613 58.8267 194.909 59.36C194.205 59.8827 193.33 60.144 192.285 60.144C191.453 60.144 190.706 59.9573 190.045 59.584C189.394 59.2107 188.882 58.6827 188.509 58C188.135 57.3067 187.949 56.5067 187.949 55.6C187.949 54.6933 188.13 53.8987 188.493 53.216C188.855 52.5333 189.362 52.0107 190.013 51.648C190.674 51.2747 191.431 51.088 192.285 51.088C193.117 51.088 193.853 51.2693 194.493 51.632C195.133 51.9947 195.623 52.496 195.965 53.136C196.317 53.7653 196.493 54.48 196.493 55.28ZM194.989 54.976C194.989 54.4213 194.866 53.9467 194.621 53.552C194.375 53.1467 194.039 52.8427 193.613 52.64C193.197 52.4267 192.733 52.32 192.221 52.32C191.485 52.32 190.855 52.5547 190.333 53.024C189.821 53.4933 189.527 54.144 189.453 54.976H194.989Z" fill="#A6A6A6"/>
<path d="M36.656 50.416C39.728 47.856 42.176 45.728 44 44.032C45.824 42.304 47.344 40.512 48.56 38.656C49.776 36.8 50.384 34.976 50.384 33.184C50.384 31.552 50 30.272 49.232 29.344C48.464 28.416 47.28 27.952 45.68 27.952C44.08 27.952 42.848 28.496 41.984 29.584C41.12 30.64 40.672 32.096 40.64 33.952H34.112C34.24 30.112 35.376 27.2 37.52 25.216C39.696 23.232 42.448 22.24 45.776 22.24C49.424 22.24 52.224 23.216 54.176 25.168C56.128 27.088 57.104 29.632 57.104 32.8C57.104 35.296 56.432 37.68 55.088 39.952C53.744 42.224 52.208 44.208 50.48 45.904C48.752 47.568 46.496 49.584 43.712 51.952H57.872V57.52H34.16V52.528L36.656 50.416ZM85.7465 28.816H70.1945V37.024C70.8665 36.192 71.8265 35.52 73.0745 35.008C74.3225 34.464 75.6505 34.192 77.0585 34.192C79.6185 34.192 81.7145 34.752 83.3465 35.872C84.9785 36.992 86.1625 38.432 86.8985 40.192C87.6345 41.92 88.0025 43.776 88.0025 45.76C88.0025 49.44 86.9465 52.4 84.8345 54.64C82.7545 56.88 79.7785 58 75.9065 58C72.2585 58 69.3465 57.088 67.1705 55.264C64.9945 53.44 63.7625 51.056 63.4745 48.112H70.0025C70.2905 49.392 70.9305 50.416 71.9225 51.184C72.9465 51.952 74.2425 52.336 75.8105 52.336C77.6985 52.336 79.1225 51.744 80.0825 50.56C81.0425 49.376 81.5225 47.808 81.5225 45.856C81.5225 43.872 81.0265 42.368 80.0345 41.344C79.0745 40.288 77.6505 39.76 75.7625 39.76C74.4185 39.76 73.2985 40.096 72.4025 40.768C71.5065 41.44 70.8665 42.336 70.4825 43.456H64.0505V22.912H85.7465V28.816ZM93.2371 40.048C93.2371 34.512 94.2291 30.176 96.2131 27.04C98.2291 23.904 101.557 22.336 106.197 22.336C110.837 22.336 114.149 23.904 116.133 27.04C118.149 30.176 119.157 34.512 119.157 40.048C119.157 45.616 118.149 49.984 116.133 53.152C114.149 56.32 110.837 57.904 106.197 57.904C101.557 57.904 98.2291 56.32 96.2131 53.152C94.2291 49.984 93.2371 45.616 93.2371 40.048ZM112.533 40.048C112.533 37.68 112.373 35.696 112.053 34.096C111.765 32.464 111.157 31.136 110.229 30.112C109.333 29.088 107.989 28.576 106.197 28.576C104.405 28.576 103.045 29.088 102.117 30.112C101.221 31.136 100.613 32.464 100.293 34.096C100.005 35.696 99.8611 37.68 99.8611 40.048C99.8611 42.48 100.005 44.528 100.293 46.192C100.581 47.824 101.189 49.152 102.117 50.176C103.045 51.168 104.405 51.664 106.197 51.664C107.989 51.664 109.349 51.168 110.277 50.176C111.205 49.152 111.813 47.824 112.101 46.192C112.389 44.528 112.533 42.48 112.533 40.048ZM150.26 43.84H141.188V53.152H134.852V43.84H125.78V37.984H134.852V28.672H141.188V37.984H150.26V43.84Z" fill="#054457"/>
<path d="M408.824 31.52H403.96L403.064 34H401.528L405.56 22.912H407.24L411.256 34H409.72L408.824 31.52ZM408.408 30.336L406.392 24.704L404.376 30.336H408.408ZM414.509 26.848C414.797 26.3467 415.224 25.9307 415.789 25.6C416.365 25.2587 417.032 25.088 417.789 25.088C418.568 25.088 419.272 25.2747 419.901 25.648C420.541 26.0213 421.043 26.5493 421.405 27.232C421.768 27.904 421.949 28.688 421.949 29.584C421.949 30.4693 421.768 31.2587 421.405 31.952C421.043 32.6453 420.541 33.184 419.901 33.568C419.272 33.952 418.568 34.144 417.789 34.144C417.043 34.144 416.381 33.9787 415.805 33.648C415.24 33.3067 414.808 32.8853 414.509 32.384V38.16H413.053V25.232H414.509V26.848ZM420.461 29.584C420.461 28.9227 420.328 28.3467 420.061 27.856C419.795 27.3653 419.432 26.992 418.973 26.736C418.525 26.48 418.029 26.352 417.485 26.352C416.952 26.352 416.456 26.4853 415.997 26.752C415.549 27.008 415.187 27.3867 414.909 27.888C414.643 28.3787 414.509 28.9493 414.509 29.6C414.509 30.2613 414.643 30.8427 414.909 31.344C415.187 31.8347 415.549 32.2133 415.997 32.48C416.456 32.736 416.952 32.864 417.485 32.864C418.029 32.864 418.525 32.736 418.973 32.48C419.432 32.2133 419.795 31.8347 420.061 31.344C420.328 30.8427 420.461 30.256 420.461 29.584ZM423.362 29.584C423.362 28.688 423.543 27.904 423.906 27.232C424.268 26.5493 424.764 26.0213 425.394 25.648C426.034 25.2747 426.743 25.088 427.522 25.088C428.29 25.088 428.956 25.2533 429.522 25.584C430.087 25.9147 430.508 26.3307 430.786 26.832V25.232H432.258V34H430.786V32.368C430.498 32.88 430.066 33.3067 429.49 33.648C428.924 33.9787 428.263 34.144 427.506 34.144C426.727 34.144 426.023 33.952 425.394 33.568C424.764 33.184 424.268 32.6453 423.906 31.952C423.543 31.2587 423.362 30.4693 423.362 29.584ZM430.786 29.6C430.786 28.9387 430.652 28.3627 430.386 27.872C430.119 27.3813 429.756 27.008 429.298 26.752C428.85 26.4853 428.354 26.352 427.81 26.352C427.266 26.352 426.77 26.48 426.322 26.736C425.874 26.992 425.516 27.3653 425.25 27.856C424.983 28.3467 424.85 28.9227 424.85 29.584C424.85 30.256 424.983 30.8427 425.25 31.344C425.516 31.8347 425.874 32.2133 426.322 32.48C426.77 32.736 427.266 32.864 427.81 32.864C428.354 32.864 428.85 32.736 429.298 32.48C429.756 32.2133 430.119 31.8347 430.386 31.344C430.652 30.8427 430.786 30.2613 430.786 29.6ZM436.214 26.656C436.47 26.1547 436.833 25.7653 437.302 25.488C437.782 25.2107 438.364 25.072 439.046 25.072V26.576H438.662C437.03 26.576 436.214 27.4613 436.214 29.232V34H434.758V25.232H436.214V26.656ZM442.543 26.432V31.6C442.543 32.0267 442.634 32.3307 442.815 32.512C442.996 32.6827 443.311 32.768 443.759 32.768H444.831V34H443.519C442.708 34 442.1 33.8133 441.695 33.44C441.29 33.0667 441.087 32.4533 441.087 31.6V26.432H439.951V25.232H441.087V23.024H442.543V25.232H444.831V26.432H442.543ZM457.179 25.072C457.862 25.072 458.47 25.216 459.003 25.504C459.536 25.7813 459.958 26.2027 460.267 26.768C460.576 27.3333 460.731 28.0213 460.731 28.832V34H459.291V29.04C459.291 28.1653 459.072 27.4987 458.635 27.04C458.208 26.5707 457.627 26.336 456.891 26.336C456.134 26.336 455.531 26.5813 455.083 27.072C454.635 27.552 454.411 28.2507 454.411 29.168V34H452.971V29.04C452.971 28.1653 452.752 27.4987 452.315 27.04C451.888 26.5707 451.307 26.336 450.571 26.336C449.814 26.336 449.211 26.5813 448.763 27.072C448.315 27.552 448.091 28.2507 448.091 29.168V34H446.635V25.232H448.091V26.496C448.379 26.0373 448.763 25.6853 449.243 25.44C449.734 25.1947 450.272 25.072 450.859 25.072C451.595 25.072 452.246 25.2373 452.811 25.568C453.376 25.8987 453.798 26.384 454.075 27.024C454.32 26.4053 454.726 25.9253 455.291 25.584C455.856 25.2427 456.486 25.072 457.179 25.072ZM471.16 29.28C471.16 29.5573 471.144 29.8507 471.112 30.16H464.104C464.157 31.024 464.45 31.7013 464.984 32.192C465.528 32.672 466.184 32.912 466.952 32.912C467.581 32.912 468.104 32.768 468.52 32.48C468.946 32.1813 469.245 31.7867 469.416 31.296H470.984C470.749 32.1387 470.28 32.8267 469.576 33.36C468.872 33.8827 467.997 34.144 466.952 34.144C466.12 34.144 465.373 33.9573 464.712 33.584C464.061 33.2107 463.549 32.6827 463.176 32C462.802 31.3067 462.616 30.5067 462.616 29.6C462.616 28.6933 462.797 27.8987 463.16 27.216C463.522 26.5333 464.029 26.0107 464.68 25.648C465.341 25.2747 466.098 25.088 466.952 25.088C467.784 25.088 468.52 25.2693 469.16 25.632C469.8 25.9947 470.29 26.496 470.632 27.136C470.984 27.7653 471.16 28.48 471.16 29.28ZM469.656 28.976C469.656 28.4213 469.533 27.9467 469.288 27.552C469.042 27.1467 468.706 26.8427 468.28 26.64C467.864 26.4267 467.4 26.32 466.888 26.32C466.152 26.32 465.522 26.5547 465 27.024C464.488 27.4933 464.194 28.144 464.12 28.976H469.656ZM477.393 25.072C478.46 25.072 479.324 25.3973 479.985 26.048C480.647 26.688 480.977 27.616 480.977 28.832V34H479.537V29.04C479.537 28.1653 479.319 27.4987 478.881 27.04C478.444 26.5707 477.847 26.336 477.089 26.336C476.321 26.336 475.708 26.576 475.249 27.056C474.801 27.536 474.577 28.2347 474.577 29.152V34H473.121V25.232H474.577V26.48C474.865 26.032 475.255 25.6853 475.745 25.44C476.247 25.1947 476.796 25.072 477.393 25.072ZM408.104 60L405.448 55.44H403.688V60H402.232V48.848H405.832C406.675 48.848 407.384 48.992 407.96 49.28C408.547 49.568 408.984 49.9573 409.272 50.448C409.56 50.9387 409.704 51.4987 409.704 52.128C409.704 52.896 409.48 53.5733 409.032 54.16C408.595 54.7467 407.933 55.136 407.048 55.328L409.848 60H408.104ZM403.688 54.272H405.832C406.621 54.272 407.213 54.08 407.608 53.696C408.003 53.3013 408.2 52.7787 408.2 52.128C408.2 51.4667 408.003 50.9547 407.608 50.592C407.224 50.2293 406.632 50.048 405.832 50.048H403.688V54.272ZM420.006 55.28C420.006 55.5573 419.99 55.8507 419.958 56.16H412.95C413.004 57.024 413.297 57.7013 413.83 58.192C414.374 58.672 415.03 58.912 415.798 58.912C416.428 58.912 416.95 58.768 417.366 58.48C417.793 58.1813 418.092 57.7867 418.262 57.296H419.83C419.596 58.1387 419.126 58.8267 418.422 59.36C417.718 59.8827 416.844 60.144 415.798 60.144C414.966 60.144 414.22 59.9573 413.558 59.584C412.908 59.2107 412.396 58.6827 412.022 58C411.649 57.3067 411.462 56.5067 411.462 55.6C411.462 54.6933 411.644 53.8987 412.006 53.216C412.369 52.5333 412.876 52.0107 413.526 51.648C414.188 51.2747 414.945 51.088 415.798 51.088C416.63 51.088 417.366 51.2693 418.006 51.632C418.646 51.9947 419.137 52.496 419.478 53.136C419.83 53.7653 420.006 54.48 420.006 55.28ZM418.502 54.976C418.502 54.4213 418.38 53.9467 418.134 53.552C417.889 53.1467 417.553 52.8427 417.126 52.64C416.71 52.4267 416.246 52.32 415.734 52.32C414.998 52.32 414.369 52.5547 413.846 53.024C413.334 53.4933 413.041 54.144 412.966 54.976H418.502ZM426.24 51.072C427.307 51.072 428.171 51.3973 428.832 52.048C429.494 52.688 429.824 53.616 429.824 54.832V60H428.384V55.04C428.384 54.1653 428.166 53.4987 427.728 53.04C427.291 52.5707 426.694 52.336 425.936 52.336C425.168 52.336 424.555 52.576 424.096 53.056C423.648 53.536 423.424 54.2347 423.424 55.152V60H421.968V51.232H423.424V52.48C423.712 52.032 424.102 51.6853 424.592 51.44C425.094 51.1947 425.643 51.072 426.24 51.072ZM434.019 52.432V57.6C434.019 58.0267 434.109 58.3307 434.291 58.512C434.472 58.6827 434.787 58.768 435.235 58.768H436.307V60H434.995C434.184 60 433.576 59.8133 433.171 59.44C432.765 59.0667 432.563 58.4533 432.563 57.6V52.432H431.427V51.232H432.563V49.024H434.019V51.232H436.307V52.432H434.019Z" fill="#A6A6A6"/>
<path d="M293.064 28.816H277.512V37.024C278.184 36.192 279.144 35.52 280.392 35.008C281.64 34.464 282.968 34.192 284.376 34.192C286.936 34.192 289.032 34.752 290.664 35.872C292.296 36.992 293.48 38.432 294.216 40.192C294.952 41.92 295.32 43.776 295.32 45.76C295.32 49.44 294.264 52.4 292.152 54.64C290.072 56.88 287.096 58 283.224 58C279.576 58 276.664 57.088 274.488 55.264C272.312 53.44 271.08 51.056 270.792 48.112H277.32C277.608 49.392 278.248 50.416 279.24 51.184C280.264 51.952 281.56 52.336 283.128 52.336C285.016 52.336 286.44 51.744 287.4 50.56C288.36 49.376 288.84 47.808 288.84 45.856C288.84 43.872 288.344 42.368 287.352 41.344C286.392 40.288 284.968 39.76 283.08 39.76C281.736 39.76 280.616 40.096 279.72 40.768C278.824 41.44 278.184 42.336 277.8 43.456H271.368V22.912H293.064V28.816ZM324.075 28.816H308.523V37.024C309.195 36.192 310.155 35.52 311.403 35.008C312.651 34.464 313.979 34.192 315.387 34.192C317.947 34.192 320.043 34.752 321.675 35.872C323.307 36.992 324.491 38.432 325.227 40.192C325.963 41.92 326.331 43.776 326.331 45.76C326.331 49.44 325.275 52.4 323.163 54.64C321.083 56.88 318.107 58 314.235 58C310.587 58 307.675 57.088 305.499 55.264C303.323 53.44 302.091 51.056 301.803 48.112H308.331C308.619 49.392 309.259 50.416 310.251 51.184C311.275 51.952 312.571 52.336 314.139 52.336C316.027 52.336 317.451 51.744 318.411 50.56C319.371 49.376 319.851 47.808 319.851 45.856C319.851 43.872 319.355 42.368 318.363 41.344C317.403 40.288 315.979 39.76 314.091 39.76C312.747 39.76 311.627 40.096 310.731 40.768C309.835 41.44 309.195 42.336 308.811 43.456H302.379V22.912H324.075V28.816ZM331.565 40.048C331.565 34.512 332.557 30.176 334.541 27.04C336.557 23.904 339.885 22.336 344.525 22.336C349.165 22.336 352.477 23.904 354.461 27.04C356.477 30.176 357.485 34.512 357.485 40.048C357.485 45.616 356.477 49.984 354.461 53.152C352.477 56.32 349.165 57.904 344.525 57.904C339.885 57.904 336.557 56.32 334.541 53.152C332.557 49.984 331.565 45.616 331.565 40.048ZM350.861 40.048C350.861 37.68 350.701 35.696 350.381 34.096C350.093 32.464 349.485 31.136 348.557 30.112C347.661 29.088 346.317 28.576 344.525 28.576C342.733 28.576 341.373 29.088 340.445 30.112C339.549 31.136 338.941 32.464 338.621 34.096C338.333 35.696 338.189 37.68 338.189 40.048C338.189 42.48 338.333 44.528 338.621 46.192C338.909 47.824 339.517 49.152 340.445 50.176C341.373 51.168 342.733 51.664 344.525 51.664C346.317 51.664 347.677 51.168 348.605 50.176C349.533 49.152 350.141 47.824 350.429 46.192C350.717 44.528 350.861 42.48 350.861 40.048ZM388.589 43.84H379.517V53.152H373.181V43.84H364.109V37.984H373.181V28.672H379.517V37.984H388.589V43.84Z" fill="#054457"/>
</svg>
