<svg width="308" height="56" viewBox="0 0 308 56" fill="none" xmlns="http://www.w3.org/2000/svg">
<rect width="56" height="56" rx="28" fill="#69B99D" fill-opacity="0.1"/>
<path d="M37.97 34.33C37.97 34.69 37.89 35.06 37.72 35.42C37.55 35.78 37.33 36.12 37.04 36.44C36.55 36.98 36.01 37.37 35.4 37.62C34.8 37.87 34.15 38 33.45 38C32.43 38 31.34 37.76 30.19 37.27C29.04 36.78 27.89 36.12 26.75 35.29C25.6 34.45 24.51 33.52 23.47 32.49C22.44 31.45 21.51 30.36 20.68 29.22C19.86 28.08 19.2 26.94 18.72 25.81C18.24 24.67 18 23.58 18 22.54C18 21.86 18.12 21.21 18.36 20.61C18.6 20 18.98 19.44 19.51 18.94C20.15 18.31 20.85 18 21.59 18C21.87 18 22.15 18.06 22.4 18.18C22.66 18.3 22.89 18.48 23.07 18.74L25.39 22.01C25.57 22.26 25.7 22.49 25.79 22.71C25.88 22.92 25.93 23.13 25.93 23.32C25.93 23.56 25.86 23.8 25.72 24.03C25.59 24.26 25.4 24.5 25.16 24.74L24.4 25.53C24.29 25.64 24.24 25.77 24.24 25.93C24.24 26.01 24.25 26.08 24.27 26.16C24.3 26.24 24.33 26.3 24.35 26.36C24.53 26.69 24.84 27.12 25.28 27.64C25.73 28.16 26.21 28.69 26.73 29.22C27.27 29.75 27.79 30.24 28.32 30.69C28.84 31.13 29.27 31.43 29.61 31.61C29.66 31.63 29.72 31.66 29.79 31.69C29.87 31.72 29.95 31.73 30.04 31.73C30.21 31.73 30.34 31.67 30.45 31.56L31.21 30.81C31.46 30.56 31.7 30.37 31.93 30.25C32.16 30.11 32.39 30.04 32.64 30.04C32.83 30.04 33.03 30.08 33.25 30.17C33.47 30.26 33.7 30.39 33.95 30.56L37.26 32.91C37.52 33.09 37.7 33.3 37.81 33.55C37.91 33.8 37.97 34.05 37.97 34.33Z" stroke="#69B99D" stroke-width="1.5" stroke-miterlimit="10"/>
<path d="M34.5 25C34.5 24.4 34.03 23.48 33.33 22.73C32.69 22.04 31.84 21.5 31 21.5" stroke="#69B99D" stroke-width="1.5" stroke-linecap="round" stroke-linejoin="round"/>
<path d="M38 25C38 21.13 34.87 18 31 18" stroke="#69B99D" stroke-width="1.5" stroke-linecap="round" stroke-linejoin="round"/>
<path d="M94.688 28.488H89.84V33.456H87.296V28.488H82.448V26.184H87.296V21.216H89.84V26.184H94.688V28.488ZM100.085 32.28C101.621 30.952 102.829 29.864 103.709 29.016C104.605 28.152 105.349 27.256 105.941 26.328C106.533 25.4 106.829 24.472 106.829 23.544C106.829 22.584 106.597 21.832 106.133 21.288C105.685 20.744 104.973 20.472 103.997 20.472C103.053 20.472 102.317 20.776 101.789 21.384C101.277 21.976 101.005 22.776 100.973 23.784H98.3328C98.3808 21.96 98.9248 20.568 99.9648 19.608C101.021 18.632 102.357 18.144 103.973 18.144C105.717 18.144 107.077 18.624 108.053 19.584C109.045 20.544 109.541 21.824 109.541 23.424C109.541 24.576 109.245 25.688 108.653 26.76C108.077 27.816 107.381 28.768 106.565 29.616C105.765 30.448 104.741 31.416 103.493 32.52L102.413 33.48H110.021V35.76H98.3568V33.768L100.085 32.28ZM118.832 40.464C117.264 38.96 116.056 37.048 115.208 34.728C114.376 32.408 113.96 29.92 113.96 27.264C113.96 24.544 114.408 21.976 115.304 19.56C116.216 17.144 117.552 15.152 119.312 13.584H122.144V13.848C120.304 15.544 118.92 17.576 117.992 19.944C117.064 22.312 116.6 24.752 116.6 27.264C116.6 29.68 117.032 32.016 117.896 34.272C118.76 36.528 120.016 38.504 121.664 40.2V40.464H118.832ZM123.901 32.352V30.288L131.965 18.72H135.277V29.976H137.509V32.352H135.277V36H132.589V32.352H123.901ZM132.709 21.504L127.045 29.976H132.709V21.504ZM151.056 20.856H143.016V25.632C143.352 25.184 143.848 24.808 144.504 24.504C145.176 24.2 145.888 24.048 146.64 24.048C147.984 24.048 149.072 24.336 149.904 24.912C150.752 25.488 151.352 26.216 151.704 27.096C152.072 27.976 152.256 28.904 152.256 29.88C152.256 31.064 152.024 32.12 151.56 33.048C151.112 33.96 150.432 34.68 149.52 35.208C148.624 35.736 147.52 36 146.208 36C144.464 36 143.064 35.568 142.008 34.704C140.952 33.84 140.32 32.696 140.112 31.272H142.776C142.952 32.024 143.344 32.624 143.952 33.072C144.56 33.504 145.32 33.72 146.232 33.72C147.368 33.72 148.216 33.376 148.776 32.688C149.352 32 149.64 31.088 149.64 29.952C149.64 28.8 149.352 27.92 148.776 27.312C148.2 26.688 147.352 26.376 146.232 26.376C145.448 26.376 144.784 26.576 144.24 26.976C143.712 27.36 143.328 27.888 143.088 28.56H140.496V18.456H151.056V20.856ZM156.616 32.28C158.152 30.952 159.36 29.864 160.24 29.016C161.136 28.152 161.88 27.256 162.472 26.328C163.064 25.4 163.36 24.472 163.36 23.544C163.36 22.584 163.128 21.832 162.664 21.288C162.216 20.744 161.504 20.472 160.528 20.472C159.584 20.472 158.848 20.776 158.32 21.384C157.808 21.976 157.536 22.776 157.504 23.784H154.864C154.912 21.96 155.456 20.568 156.496 19.608C157.552 18.632 158.888 18.144 160.504 18.144C162.248 18.144 163.608 18.624 164.584 19.584C165.576 20.544 166.072 21.824 166.072 23.424C166.072 24.576 165.776 25.688 165.184 26.76C164.608 27.816 163.912 28.768 163.096 29.616C162.296 30.448 161.272 31.416 160.024 32.52L158.944 33.48H166.552V35.76H154.888V33.768L156.616 32.28ZM168.644 40.464V40.2C170.292 38.504 171.548 36.528 172.412 34.272C173.276 32.016 173.708 29.68 173.708 27.264C173.708 24.752 173.244 22.312 172.316 19.944C171.388 17.576 170.004 15.544 168.164 13.848V13.584H170.996C172.756 15.152 174.084 17.144 174.98 19.56C175.892 21.976 176.348 24.544 176.348 27.264C176.348 29.92 175.924 32.408 175.076 34.728C174.244 37.048 173.044 38.96 171.476 40.464H168.644ZM196.411 22.56C196.235 21.824 195.915 21.272 195.451 20.904C194.987 20.536 194.339 20.352 193.507 20.352C192.243 20.352 191.299 20.84 190.675 21.816C190.051 22.776 189.723 24.376 189.691 26.616C190.107 25.912 190.715 25.368 191.515 24.984C192.315 24.6 193.179 24.408 194.107 24.408C195.163 24.408 196.091 24.64 196.891 25.104C197.707 25.552 198.339 26.208 198.786 27.072C199.251 27.936 199.483 28.968 199.483 30.168C199.483 31.288 199.259 32.288 198.811 33.168C198.379 34.048 197.731 34.744 196.867 35.256C196.003 35.752 194.963 36 193.747 36C192.099 36 190.803 35.64 189.859 34.92C188.931 34.184 188.275 33.152 187.891 31.824C187.523 30.496 187.339 28.84 187.339 26.856C187.339 21 189.403 18.072 193.531 18.072C195.131 18.072 196.387 18.504 197.299 19.368C198.227 20.232 198.771 21.296 198.931 22.56H196.411ZM193.507 26.712C192.531 26.712 191.699 27.008 191.011 27.6C190.339 28.176 190.003 29.016 190.003 30.12C190.003 31.224 190.315 32.104 190.939 32.76C191.579 33.4 192.467 33.72 193.603 33.72C194.611 33.72 195.403 33.408 195.979 32.784C196.571 32.16 196.867 31.328 196.867 30.288C196.867 29.2 196.579 28.336 196.003 27.696C195.443 27.04 194.611 26.712 193.507 26.712ZM213.681 20.856H205.641V25.632C205.977 25.184 206.473 24.808 207.129 24.504C207.801 24.2 208.513 24.048 209.265 24.048C210.609 24.048 211.697 24.336 212.529 24.912C213.377 25.488 213.977 26.216 214.329 27.096C214.697 27.976 214.881 28.904 214.881 29.88C214.881 31.064 214.649 32.12 214.185 33.048C213.737 33.96 213.057 34.68 212.145 35.208C211.249 35.736 210.145 36 208.833 36C207.089 36 205.689 35.568 204.633 34.704C203.577 33.84 202.945 32.696 202.737 31.272H205.401C205.577 32.024 205.969 32.624 206.577 33.072C207.185 33.504 207.945 33.72 208.857 33.72C209.993 33.72 210.841 33.376 211.401 32.688C211.977 32 212.265 31.088 212.265 29.952C212.265 28.8 211.977 27.92 211.401 27.312C210.825 26.688 209.977 26.376 208.857 26.376C208.073 26.376 207.409 26.576 206.865 26.976C206.337 27.36 205.953 27.888 205.713 28.56H203.121V18.456H213.681V20.856ZM220.681 26.856C219.017 26.024 218.185 24.712 218.185 22.92C218.185 22.056 218.401 21.264 218.833 20.544C219.265 19.824 219.913 19.256 220.777 18.84C221.641 18.408 222.697 18.192 223.945 18.192C225.177 18.192 226.225 18.408 227.089 18.84C227.969 19.256 228.625 19.824 229.057 20.544C229.489 21.264 229.705 22.056 229.705 22.92C229.705 23.816 229.473 24.608 229.009 25.296C228.561 25.968 227.961 26.488 227.209 26.856C228.121 27.192 228.841 27.744 229.369 28.512C229.897 29.264 230.161 30.152 230.161 31.176C230.161 32.216 229.897 33.136 229.369 33.936C228.841 34.736 228.105 35.352 227.161 35.784C226.217 36.216 225.145 36.432 223.945 36.432C222.745 36.432 221.673 36.216 220.729 35.784C219.801 35.352 219.073 34.736 218.545 33.936C218.017 33.136 217.753 32.216 217.753 31.176C217.753 30.136 218.017 29.24 218.545 28.488C219.073 27.736 219.785 27.192 220.681 26.856ZM227.089 23.256C227.089 22.36 226.809 21.672 226.249 21.192C225.689 20.712 224.921 20.472 223.945 20.472C222.985 20.472 222.225 20.712 221.665 21.192C221.105 21.672 220.825 22.368 220.825 23.28C220.825 24.08 221.113 24.736 221.689 25.248C222.281 25.744 223.033 25.992 223.945 25.992C224.857 25.992 225.609 25.736 226.201 25.224C226.793 24.712 227.089 24.056 227.089 23.256ZM223.945 28.056C222.889 28.056 222.025 28.32 221.353 28.848C220.697 29.36 220.369 30.104 220.369 31.08C220.369 31.992 220.689 32.736 221.329 33.312C221.969 33.872 222.841 34.152 223.945 34.152C225.033 34.152 225.889 33.864 226.513 33.288C227.153 32.712 227.473 31.976 227.473 31.08C227.473 30.12 227.145 29.376 226.489 28.848C225.849 28.32 225.001 28.056 223.945 28.056ZM243.546 26.16V28.464H233.682V26.16H243.546ZM246.737 32.352V30.288L254.801 18.72H258.113V29.976H260.345V32.352H258.113V36H255.425V32.352H246.737ZM255.545 21.504L249.881 29.976H255.545V21.504ZM273.892 20.856H265.852V25.632C266.188 25.184 266.684 24.808 267.34 24.504C268.012 24.2 268.724 24.048 269.476 24.048C270.82 24.048 271.908 24.336 272.74 24.912C273.588 25.488 274.188 26.216 274.54 27.096C274.908 27.976 275.092 28.904 275.092 29.88C275.092 31.064 274.86 32.12 274.396 33.048C273.948 33.96 273.268 34.68 272.356 35.208C271.46 35.736 270.356 36 269.044 36C267.3 36 265.9 35.568 264.844 34.704C263.788 33.84 263.156 32.696 262.948 31.272H265.612C265.788 32.024 266.18 32.624 266.788 33.072C267.396 33.504 268.156 33.72 269.068 33.72C270.204 33.72 271.052 33.376 271.612 32.688C272.188 32 272.476 31.088 272.476 29.952C272.476 28.8 272.188 27.92 271.612 27.312C271.036 26.688 270.188 26.376 269.068 26.376C268.284 26.376 267.62 26.576 267.076 26.976C266.548 27.36 266.164 27.888 265.924 28.56H263.332V18.456H273.892V20.856ZM289.22 20.856H281.18V25.632C281.516 25.184 282.012 24.808 282.668 24.504C283.34 24.2 284.052 24.048 284.804 24.048C286.148 24.048 287.236 24.336 288.068 24.912C288.916 25.488 289.516 26.216 289.868 27.096C290.236 27.976 290.42 28.904 290.42 29.88C290.42 31.064 290.188 32.12 289.724 33.048C289.276 33.96 288.596 34.68 287.684 35.208C286.788 35.736 285.684 36 284.372 36C282.628 36 281.228 35.568 280.172 34.704C279.116 33.84 278.484 32.696 278.276 31.272H280.94C281.116 32.024 281.508 32.624 282.116 33.072C282.724 33.504 283.484 33.72 284.396 33.72C285.532 33.72 286.38 33.376 286.94 32.688C287.516 32 287.804 31.088 287.804 29.952C287.804 28.8 287.516 27.92 286.94 27.312C286.364 26.688 285.516 26.376 284.396 26.376C283.612 26.376 282.948 26.576 282.404 26.976C281.876 27.36 281.492 27.888 281.252 28.56H278.66V18.456H289.22V20.856ZM302.676 22.56C302.5 21.824 302.18 21.272 301.716 20.904C301.252 20.536 300.604 20.352 299.772 20.352C298.508 20.352 297.564 20.84 296.94 21.816C296.316 22.776 295.988 24.376 295.956 26.616C296.372 25.912 296.98 25.368 297.78 24.984C298.58 24.6 299.444 24.408 300.372 24.408C301.428 24.408 302.356 24.64 303.156 25.104C303.972 25.552 304.604 26.208 305.052 27.072C305.516 27.936 305.748 28.968 305.748 30.168C305.748 31.288 305.524 32.288 305.076 33.168C304.644 34.048 303.996 34.744 303.132 35.256C302.268 35.752 301.228 36 300.012 36C298.364 36 297.068 35.64 296.124 34.92C295.196 34.184 294.54 33.152 294.156 31.824C293.788 30.496 293.604 28.84 293.604 26.856C293.604 21 295.668 18.072 299.796 18.072C301.396 18.072 302.652 18.504 303.564 19.368C304.492 20.232 305.036 21.296 305.196 22.56H302.676ZM299.772 26.712C298.796 26.712 297.964 27.008 297.276 27.6C296.604 28.176 296.268 29.016 296.268 30.12C296.268 31.224 296.58 32.104 297.204 32.76C297.844 33.4 298.732 33.72 299.868 33.72C300.876 33.72 301.668 33.408 302.244 32.784C302.836 32.16 303.132 31.328 303.132 30.288C303.132 29.2 302.844 28.336 302.268 27.696C301.708 27.04 300.876 26.712 299.772 26.712Z" fill="#1F2744"/>
</svg>
